/* XPM */
static char *cb95w_rn6hs[] = {
/* columns rows colors chars-per-pixel */
"64 64 203 2 ",
"   c None",
".  c #0C5F7D",
"X  c #1E667D",
"o  c #23667A",
"O  c #28697B",
"+  c #015C83",
"@  c #026186",
"#  c #00638A",
"$  c #0A678A",
"%  c #0D698C",
"&  c #0C6585",
"*  c #136C8E",
"=  c #1A6D8D",
"-  c #1C6A85",
";  c #016A97",
":  c #006C9C",
">  c #086A92",
",  c #166F90",
"<  c #09749E",
"1  c #0E7097",
"2  c #167092",
"3  c #1C7393",
"4  c #256E86",
"5  c #296D82",
"6  c #246F89",
"7  c #25718C",
"8  c #2B738C",
"9  c #2C7085",
"0  c #267593",
"q  c #2A7692",
"w  c #277896",
"e  c #2B7995",
"r  c #267A9A",
"t  c #2A7B9A",
"y  c #207798",
"u  c #317D9A",
"i  c #0474A2",
"p  c #0975A0",
"a  c #0B79A6",
"s  c #0D7CAD",
"d  c #1A7FA8",
"f  c #127CA7",
"g  c #037DB2",
"h  c #297FA1",
"j  c #457F90",
"k  c #2D809F",
"l  c #33819F",
"z  c #1481AE",
"x  c #0D83B8",
"c  c #1486B9",
"v  c #1484B6",
"b  c #2481A6",
"n  c #2D84A5",
"m  c #2384AB",
"M  c #2D86A9",
"N  c #2F8AAE",
"B  c #3184A5",
"V  c #3287A9",
"C  c #318AAD",
"Z  c #3A8CAD",
"A  c #2E8BB2",
"S  c #268BB6",
"D  c #318DB3",
"F  c #348FB5",
"G  c #2F92BD",
"H  c #3490B6",
"J  c #3891B5",
"K  c #3292BA",
"L  c #3B95BC",
"P  c #4D8799",
"I  c #478DA8",
"U  c #4C91AB",
"Y  c #5595AD",
"T  c #4897B7",
"R  c #5398B3",
"E  c #569BB5",
"W  c #6694A1",
"Q  c #5EA1B9",
"!  c #6CA3B5",
"~  c #75A9BD",
"^  c #068BC8",
"/  c #168EC5",
"(  c #198FC5",
")  c #1591CA",
"_  c #1991C9",
"`  c #1790C7",
"'  c #0996DA",
"]  c #139BDD",
"[  c #1699D7",
"{  c #2F95C2",
"}  c #2B98CA",
"|  c #3196C3",
" . c #3299C6",
".. c #329BCB",
"X. c #3B9ECD",
"o. c #3A9BC6",
"O. c #219BD3",
"+. c #299DD4",
"@. c #329FD1",
"#. c #34A1D5",
"$. c #3BA2D2",
"%. c #35A6DD",
"&. c #35A8DF",
"*. c #079BE4",
"=. c #149DE0",
"-. c #0EA1EA",
";. c #15A5ED",
":. c #1CABF3",
">. c #17A9F3",
",. c #22A3E3",
"<. c #2BAAE8",
"1. c #35A9E2",
"2. c #3BACE4",
"3. c #36AEE9",
"4. c #38AFEA",
"5. c #36B1ED",
"6. c #39B2EE",
"7. c #26AEF3",
"8. c #36B3F2",
"9. c #39B4F3",
"0. c #3BBAFB",
"q. c #38B7F8",
"w. c #2DB1F5",
"e. c #40A2D0",
"r. c #58AED6",
"t. c #78AEC2",
"y. c #7AB0C6",
"u. c #7BBDDD",
"i. c #6BB3D2",
"p. c #4EB7EC",
"a. c #59BAEA",
"s. c #52B8EC",
"d. c #49B9F0",
"f. c #62BEEA",
"g. c #7BBFE1",
"h. c #5BC1F4",
"j. c #64C1EF",
"k. c #7CC3E5",
"l. c #76C3E8",
"z. c #84B0BE",
"x. c #A3BBBE",
"c. c #87B6C9",
"v. c #93B7C5",
"b. c #85BED9",
"n. c #A1BEC6",
"m. c #8CC1D7",
"M. c #8EC5DE",
"N. c #86C1DE",
"B. c #92C6DD",
"V. c #9BC9DB",
"C. c #99C4D7",
"Z. c #AEC3C9",
"A. c #A8C9D6",
"S. c #A3CDDE",
"D. c #A8C9D8",
"F. c #B5CCD4",
"G. c #BED3DC",
"H. c #85C4E2",
"J. c #9AC9E1",
"K. c #B3D6E4",
"L. c #CBDBDE",
"P. c #C8D4D7",
"I. c #D5D6D6",
"U. c #DCDCDD",
"Y. c #D6D8D8",
"T. c #E1DFDE",
"R. c #DFE0DF",
"E. c #E2E1DF",
"W. c #EBE1DD",
"Q. c #EFEADF",
"!. c #FFEEDF",
"~. c #F8E6DD",
"^. c #C5DBE3",
"/. c #DDDFE0",
"(. c #E0DFE0",
"). c #DEE1E1",
"_. c #D4E2E5",
"`. c #D9EBF1",
"'. c #DCF0F9",
"]. c #E3E3E2",
"[. c #EAE6E3",
"{. c #E7E8E6",
"}. c #EAE9E5",
"|. c #E6EAEB",
" X c #ECECEB",
".X c #F3EBE5",
"XX c #FDEDE3",
"oX c #F2EEEC",
"OX c #F6EBE4",
"+X c #EDF0EC",
"@X c #FFF3E6",
"#X c #F3F1ED",
"$X c #FEF5EA",
"%X c #FFF8EC",
"&X c #E6EFF2",
"*X c #EEF1F3",
"=X c #E5F1F5",
"-X c #F4F4F4",
";X c #FCF6F2",
":X c #FFFCF3",
">X c #F4F7F9",
",X c #F7F9F9",
"<X c #FEFFFF",
/* pixels */
"                                                              (.(.                                                              ",
"                                                          (.]./.U.].].                                                          ",
"                                                        ]./.].(.]./.(.(.                                                        ",
"                                                    -XY.U.(.(.(.U.].].U.U.].                                                    ",
"                                                U.  <X,X{.Y.U.(.].U.T.E.{.{.  T.                                                ",
"                                            ].(.].U.].<X<X-X(.Y.U.].].{.{.].U.].U.].                                            ",
"                                          ].(.(.T.U.U.Y.}.<X<X X/.].{.].].U.].U.].U.].                                          ",
"                                      ].Y.U.].(.(.].].U.Y.U.:X<X:X}.U.Y./.(./.].(.(./.U.].                                      ",
"                                      <X}.U.U.(.].].).U.(.%X:XC.v.<X<X].Y.U.(.(.].U.(.].{.                                      ",
"                                ].U.U.-X<X<X{.Y.Y./.U.#X<XL.U + + U _.<X:X).Y.(.(.].{.{.]./.].T.                                ",
"                            ].U.]./.T.Y.].,X<X-X(.T.%X+X! % # t t @ $ t.<X<X XU.].{.{.T.U.(.U.].].U.                            ",
"                        Y.U./.].(.(.(.].U.Y.].<X<X:Xn.- + y t t t t 3 + = A.<X:X[.U.U.U.].U.].(./.].].U.                        ",
"                        ,XT.Y.T.].(.(./.R.U.OX<XG.].1.s 8 7 t t t r 0 u > D =XF.<X<X].Y.T.T.].(./.U.].].                        ",
"                  ].Y.].<X<X XU.Y.].T.U..X<X_.Y + e e.0.2.V 4 0 w 0 l F H Z t + Y `.<X,XT.Y.U./.T.].{.{.].U.].                  ",
"              U.].U.].U.U.*X<X<X{.Y.].:X#X~ % # r 2 - n 1.0.$.t q C L N t 3 = t @ % y.<X<X}.U.E.{.{.].E./.].U.].].              ",
"          Y.].].(.].T.].U.Y.].-X<X<XOXx.7 @ 3 t t t t 7 6 M 5.2.F M 0 0 w t t r u 3 + q A.<X<X[.T.U./.E.(./.].U.].(./.          ",
"        ,X{.Y.U.].T.(.(.(.U.Y.#X<X X`.^ % 9 w t t r t w w 7 K 8.A | A 6 6 r t t t t q * ; '.&X%X<X].Y.U.].(.].].U.T.].].        ",
"        <X<X-X].Y.U.(.(.U.oX<X).R - R 9.0.K 7 6 t r 0 t N C | 3.n #.q.@.h 4 0 t w q V K D E = Y &X<X;XU.Y.(.U./.].].[.{.        ",
"        <X<X<X<X*XU.Y.{.:X$Xc.* @ 3 % 0 ..0.6.C 6 q M D A n | 1.M ..3.9.5.| t 6 h J H n q % 3 # , c.<X<X}.U.E.].{.{.].{.        ",
"        <X<X<X<X<X<X}.OXZ.t + 2 t t t 8 4 t #.0.o.C D N N n | 3.n ..3.1.1.9.2.J C h r w t t t t , + t F.<X-XE.{.{.].{.].        ",
"        <X<X<X<X<X<X:XV.; . q t r t t t w 6 7 %.1.M N N N n ..8.C ..3.1.1.&.4.K D N 4 7 t r t r t t & + S.<X].].{.].[.{.        ",
"        <X<X<X<X<X<X@XH.;.$.t 4 0 r w w t N M @.&.n N N N A M @.n  .5.%.&.&.3.A | q.@.t 6 w t w q t Z i m.<X].[.[.].{.].        ",
"        <X<X<X<X<X<X%XM.=.8.6.L 8 7 t n A D n #.&.n N A D D n 4 4 ..0.1.&.1.1.A K 3.8.4.K q 7 t V F D < V.<X].{.{.].{.{.        ",
"          *X<X<X<X<X@XB.=.&.1.9.1.C C D A N V #.&.n N D M A 4.X.B n G 5.9.1.3.A K 3.1.1.9.2.C C D A C p V.<X].].{.{.].          ",
"        {.Y.U.-X<X<X@XB.] 1.&.%.9.$.n N N N n %.1.V D M 0 7 ..9.K A 9 7 ..9.9.A K 3.1.1.%.8.$.n N N C < V.<X].{.].E.U.].        ",
"        <X,X].I.].<X%XH.] %.1.&.3.| n N N N n | %.M t 0 n n | 3.n #.5.b o t 3.K A 3.1.1.%.3...n A C D p m.<X].E.U.].[.{.        ",
"        <X<X<X-XU.Y.!.b.*.2.%.1.3.| n C A D D e 0 q t N D M | 3.V ..9.9.#.e 4 7 A 0.1.&.1.3. .n N N C : ~ @XR.R.].{.{.{.        ",
"        <X<X<X<X<X X[.}.f.,.5.1.3.| n N D V | 1.B n D A N M | 1.M ..1.1.5.6.| t B ..3.5.%.3. .n N D f i.>X$XR.}.{.{.].].        ",
"        <X<X<X<X<X<X#XL.P * #.9.8.| M D M 0 h 5.2.M N N N n  .5.n ..3.%.%.1.q.o.M 7 7 @.9.9.| M D N * I `.<XE.].{.].].{.        ",
"        <X<X<X<X<X<X%Xg.^ l O b 3.#.n t 0 t k #.&.M N N C M K 5.N ..3.1.1.1.1.D | 3.n o h 3.%.B r 0 u ; b.<XE.}.].[.{.].        ",
"        <X<X<X<X<X<X%XM.;.9.X.8 7 n 0 r N A M #.%.n N N A A e w 0 ..q.1.%.1.5.D K 8.9.@.q 4 h q u C J a V.<X].[.{.[.].{.        ",
"          <X<X<X<X<X@XM.=.1.5.9.K 8 B D D N n #.%.n N A C K %.V e H 1.9.1.%.3.C K 1.1.8.8.K q B F A C p V.<X].{.].{.{.          ",
"          Y. X<X<X<X$XB.] 1.%.1.q.e.n N N N n %.%.n D D t t 1.:.z n 5 A 5.8.3.D G 3.1.&.1.9.$.M N N N p V.<X].].{.].E.          ",
"        <X XY.U.-X<X%XB.=.&.1.&.3. .n A N D h #.3.N M q t 2 g f.E ^ _ 5 9 ..q.K K 1.%.1.1.3.X.n N N C p V.<X].].E.U.].].        ",
"        <X<X,X].Y.].@Xg.*.%.1.1.3.| n C N D N w m t e r i A A.XX@XS.8.*.m O h h A 9.%.%.1.3. .n A A F : ~ ;X].U.].{.{.[.        ",
"        <X<X<X<X,XU.W.^.d.<.1.1.3.| n N D N  .| 8 u a z y.}.%XT.].XXW.k.:.] l 5 C 5.9.1.&.3. .n N A m T ^.XXU.{.{.].].{.        ",
"        <X<X<X<X<X<X X.XW s 9.5.3.{ n D D w N 0.+.d E P.%X}././././.[.XXL.a.7.S n 8 A 5.6.3. .n D D 1 ! <X,XE.{.{.].].{.        ",
"        <X<X<X<X<X<X%XN.g 5 q ..q.X.N n w w , ) 2.b >X:XI.U.]././.T.T./.XX].7.L g } 5 7 ..0.#.M M w e # C.<X].].].{.[.].        ",
"        <X<X<X<X<X<X@XH.>.2.B o M | w q h i A C.OXP.&X<X*X/.Y.U.].U./.).}./.^.!.V.w.*.b O n | w 0 B J a C.<X].].{.[.].{.        ",
"        <X<X<X<X<X<X%XM.=.4.9.#.e 4 t a s t.].@X(..XT.{.<X<X XU.U.).{.{.).T.~.[.@XE.l.>.] q 5 t C H N < V.<X].{.].{.{.{.        ",
"          ].,X<X<X<X%XB.=.&.%.4.9.L h T P.;X.X/.).].U.Y.U.oX<X-X).].E.E.(.(.).U./..X!.L.s.7.L C A N N i V.<X].{.{.{.].          ",
"        -XU.Y.}.<X<X%XB.] 1.&.%.4.( T :XXXU././.U.].(.].U.Y.-X<X{. X{.Y.U.].T.].)./.T.~.@Xs.O.B A N C < V.<XE.{.].U.R.[.        ",
"        <X<X*XY.Y.-X%XN.=.&.1.1.4.v E <X>X].Y.U.].E.U.R.{.]. X<XT.,X<X*X/.Y.U.).].U./.].@Xa./ B N N D < c.<X].U.T.].{.{.        ",
"        <X<X<X<X{.Y.~.J.;.3.%.&.4.c R <X<X<X*X/.Y.R.].}.{.E.oX<X].-X<X<X<X XU.U./.).{.{.XXa.` B A N A z v.XXT.].].{.{.].        ",
"        <X<X<X<X<X,X{.XXt.[ 9.1.3.c R <X<X<X<X<X{.R.{.{.].].oX<X].-X<X<X<X<X>X).).{.{.[.XXa.` n N A a y.<X-XE.{.[.{.{.].        ",
"        <X<X<X<X<X<X%XS.0 X G 5.0.c R <X<X<X<X<X<X].].{.{.U.-X<XE.-X<X<X<X<X<X}.E.{.[.}.XXh._ V D n 7 3 K.<XE.].{.].[.{.        ",
"        ,X<X<X<X<X<X%Xk.-.L 5 7 #./ R <X<X<X<X<X-XE.{.].].].{.:X].-X<X<X<X<X<X XE.{.].}.XXr._ n 0 q Z : m.<X].].].{.{.].        ",
"        <X<X<X<X<X<X@XM.=.9.2.V 5 + I <X<X<X<X<X,X].].[.{.{.E.Y.Y.-X<X<X<X<X<X}.].].{.}.%XP $ w n H H < V.<X].].{.].].{.        ",
"          <X<X<X<X<X@XH.=.%.1.0.#.h < y.<X<X<X<X-XE.].{.].}.<X*XT.].-X<X<X<X<X XE.{.{.OXl.[ n n H N N < V.<X].{.].}.{.          ",
"              <X<X<X%XV.=.&.&.&.9.} C Z.W. X<X<X,X].}.{.U.U.,X<X}.].Y.U.,X<X<X X].{.[.[.F.9.+.n N N N < V.<X].].].              ",
"                  <X%XM.] 1.1.&.5.v Q <X|.I.U.-X<X].E.U.].]. X-XT.:X<XT.Y.{.<X XE.E.U.).%Xf.) n N N N i C.<X].                  ",
"                        ,.&.1.&.3.c R <X<X>X/.I.E.E.R.{.}.].].U./.].,X<X-XY.U.].U./.].}.XXa._ n N N Z z                         ",
"                        %.1.&.1.5.c R <X<X<X<X-XT.R.[.{.].U.U.(./.U.Y.{.<X<X}.T.].].{.{.XXa.` B N C N m                         ",
"                            &.&.5.c R <X<X<X<X<X,X].].Y.U.].].(.(.]./.U.U.-X<X X].{.[.}.@Xa.` n N N                             ",
"                                5.c I <X<X<X<X<X-X].<X XU.Y.E.(.(.(./.(.E.].<X XE.{.].}.OXs.` B                                 ",
"                                      <X<X<X<X<X,XE.<X<X,X{.Y.T./.(.].{.].{.<X X].].{.[.@X                                      ",
"                                      <X<X<X<X<X-X].,X<X<X<X-X).U.{.{.{.].{.<X XE.{.].{.OX                                      ",
"                                          <X<X<X-XE.<X<X<X<X<X<X{.].].{.E.}.<X XE.{.{.                                          ",
"                                            <X<X-X].,X<X<X<X<X<X{.].[.[.].}.<X X].].                                            ",
"                                                -X  <X<X<X<X<X<X{.].].{.{.].  oX                                                ",
"                                                    <X<X<X<X<X<X{.].].].{.E.                                                    ",
"                                                        <X<X<X<X{.].{.{.                                                        ",
"                                                          <X<X<X[.].{.                                                          ",
"                                                              <X{.                                                              "
};
