/* XPM */
static char *cbydk_13uo3[] = {
/* columns rows colors chars-per-pixel */
"32 32 166 2 ",
"   c None",
".  c #00577E",
"X  c #005C83",
"o  c #016186",
"O  c #0D6181",
"+  c #00638F",
"@  c #0D6689",
"#  c #126B8C",
"$  c #046A93",
"%  c #066E98",
"&  c #126E92",
"*  c #0D759F",
"=  c #1C7494",
"-  c #157399",
";  c #236B84",
":  c #25738D",
">  c #2B738C",
",  c #267592",
"<  c #287792",
"1  c #277896",
"2  c #2C7995",
"3  c #257A9A",
"4  c #2D7E9C",
"5  c #317E9D",
"6  c #0474A2",
"7  c #0976A3",
"8  c #0D79A5",
"9  c #0073AC",
"0  c #1A7BA2",
"q  c #137DAA",
"w  c #007BB7",
"e  c #237EA3",
"r  c #1E83AD",
"t  c #0A80B3",
"y  c #0785BE",
"u  c #0B83BA",
"i  c #1481B2",
"p  c #1A84B0",
"a  c #2381A6",
"s  c #2D83A4",
"d  c #2D86A9",
"f  c #2F89AC",
"g  c #3284A5",
"h  c #3187A9",
"j  c #3189AD",
"k  c #2288B4",
"l  c #2E8BB2",
"z  c #328DB2",
"x  c #308FB8",
"c  c #2E92BE",
"v  c #3292BB",
"b  c #5E94A4",
"n  c #4997B7",
"m  c #639DB3",
"M  c #66A0B7",
"N  c #62A3BC",
"B  c #6EA6BB",
"V  c #0787C2",
"C  c #0B87C0",
"Z  c #0688C4",
"A  c #0D8AC3",
"S  c #0F8ECA",
"D  c #1C8EC2",
"F  c #0F93CF",
"G  c #1C92C8",
"H  c #0E96D9",
"J  c #0E99DE",
"K  c #0D93D3",
"L  c #1299DC",
"P  c #2290C1",
"I  c #2E95C3",
"U  c #2696C9",
"Y  c #2B97C8",
"T  c #2C9ACD",
"R  c #3195C2",
"E  c #3398C5",
"W  c #339CCC",
"Q  c #239AD2",
"!  c #339FD1",
"~  c #35A1D4",
"^  c #3AA5D7",
"/  c #36A6DC",
"(  c #39AADF",
")  c #129DE3",
"_  c #1AA4E9",
"`  c #17A6F0",
"'  c #2FA9E4",
"]  c #27A9EA",
"[  c #35AAE3",
"{  c #3AAAE2",
"}  c #36AEEB",
"|  c #37B1ED",
" . c #3AB1EC",
".. c #2EB3F7",
"X. c #2BB2F8",
"o. c #36B3F2",
"O. c #38B5F4",
"+. c #3CB8F7",
"@. c #39B9FB",
"#. c #47A2CB",
"$. c #69B8DC",
"%. c #66BBE1",
"&. c #69C1EC",
"*. c #96BCCB",
"=. c #9CC0CE",
"-. c #98C2D1",
";. c #AFC1C3",
":. c #AFC8CD",
">. c #A3C6D3",
",. c #A5C8D5",
"<. c #A9CCD9",
"1. c #B3CFDB",
"2. c #B6CDD5",
"3. c #B1D1DB",
"4. c #BBD3DC",
"5. c #9FD2EA",
"6. c #ACD7EB",
"7. c #A6D2E5",
"8. c #B3D5E3",
"9. c #B6D8E6",
"0. c #B9D9E5",
"q. c #B2DAEA",
"w. c #BBDFEE",
"e. c #A5D8F0",
"r. c #A9D8F0",
"t. c #B1E3FB",
"y. c #C5D7DE",
"u. c #CEDBDE",
"i. c #DAD7D7",
"p. c #D6D7D8",
"a. c #D6DADB",
"s. c #DCDCDC",
"d. c #E1DFDE",
"f. c #DFE0DF",
"g. c #E2E1DF",
"h. c #F0E4DF",
"j. c #C5DBE2",
"k. c #C5DEE8",
"l. c #D3DCE0",
"z. c #DCDEE0",
"x. c #C5E2ED",
"c. c #D3E3E7",
"v. c #DDE1E2",
"b. c #DCEAF1",
"n. c #E4E4E3",
"m. c #EDE6E3",
"M. c #E9E9E6",
"N. c #E3EAEB",
"B. c #EBEBEB",
"V. c #F3EAE6",
"C. c #FCEDE4",
"Z. c #F5EEE9",
"A. c #F9EDE8",
"S. c #EFF0EE",
"D. c #FFF4E4",
"F. c #F3F2EE",
"G. c #FFF6EF",
"H. c #FFFAEF",
"J. c #E1ECF0",
"K. c #EFEFF0",
"L. c #EFF5F8",
"P. c #F4F4F3",
"I. c #FEF6F1",
"U. c #FEF9F3",
"Y. c #F7F9F9",
"T. c #FEFEFE",
/* pixels */
"                              f.f.                              ",
"                            p.d.f.f.                            ",
"                        s.P.K.z.s.n.M.f.                        ",
"                    s.s.n.p.U.T.U.V.p.f.n.v.                    ",
"                s.B.P.n.i.H.S.M m Y.U.s.s.n.n.s.                ",
"            s.s.n.s.n.T.T.:.; . X 1 1.T.I.d.s.d.s.n.            ",
"          M.Y.n.i.m.H.2.B G i > 2 & 0 B 4.T.m.s.n.n.n.          ",
"      s.n.s.f.T.T.M.b o o 3 ~ W g 5 3 X o m L.T.m.s.z.n.s.      ",
"    Y.n.p.s.I.F.*.#.w : > , < / ~ c : > 2 + n *.Y.U.i.s.n.n.    ",
"    T.T.P.m.;.2 . & W ~ g j f W W +.[ j 5 g & X 4 2.P.n.n.M.    ",
"    T.T.T.x.9 O > < . #.~ d j l Y  .o./ v a ; < @ + x.G.n.n.    ",
"    B.T.T.9.` { d s j #.W d l l s ! @.E ~ @.E 4 j q 0.G.M.n.    ",
"    B.f.I.9.J O.{ d d c v 1 s ~ E d l c W o.O.E h 7 3.G.g.n.    ",
"    T.Y.A.a.~ X.~ d f x s s j E ! o.R 2 x  .O.v e l v.V.n.M.    ",
"    T.T.T.c.d k ~ s : W ~ d d v W } +.^ d a ! v = e b.F.M.n.    ",
"    Y.T.T.q.) R s s s E W g v r 0 { @.Y ~ [ f 5 g 8 8.H.n.n.    ",
"    B.n.T.9.J @.~ h d R W 1 $ ^ v 6 I E W o.O.v h 7 8.G.g.n.    ",
"    T.S.C.u.' o.~ h z v - $ N m.P.%.w - v +.o.v e l l.V.n.n.    ",
"    T.T.T.v.s P / g # u Y 3.G.h.h.D.t.W 7 q ( E = g N.Z.M.n.    ",
"    Y.T.T.6.H x g $ e <.B.U.Y.v.p.n.C.m.6.U 7 s s 7 9.G.n.n.    ",
"    n.B.T.0.) O.P N F.D.h.s.n.Y.B.f.s.m.C.F.&.p j 7 9.G.n.n.    ",
"    Y.M.C.j.] o.Z 4.T.z.s.n.g.F.P.Y.n.s.a.D.w.y s k y.A.n.n.    ",
"    T.T.Y.v.h Q K >.T.T.N.n.n.F.P.T.T.B.f.D.r.A = h N.Z.M.n.    ",
"    T.T.T.q.S f % *.T.T.F.g.n.n.B.T.T.Y.g.H.-.% 4 * 9.H.n.n.    ",
"      T.T.j._ O.i m I.T.P.i.n.Y.M.B.Y.Y.g.A.$.8 j q k.G.n.      ",
"          7.L } F >.I.n.n.n.n.n.M.K.B.n.v.C.e.A h 8 <.          ",
"            J  .V -.T.Y.n.f.s.s.s.n.P.M.g.D.e.t h 7             ",
"                A >.T.T.P.P.n.s.z.s.M.Y.n.D.6.u                 ",
"                    T.T.B.T.T.P.n.n.Z.P.n.V.                    ",
"                        B.Y.T.T.M.f.B.K.                        ",
"                            T.T.M.n.n.                          ",
"                              T.n.                              "
};
