<?xml version="1.0" encoding="utf-8"?>
<!-- Generator: Adobe Illustrator 26.2.1, SVG Export Plug-In . SVG Version: 6.00 Build 0)  -->
<svg version="1.1" id="Layer_2" xmlns="http://www.w3.org/2000/svg" xmlns:xlink="http://www.w3.org/1999/xlink" x="0px" y="0px"
	 viewBox="0 0 24 24" style="enable-background:new 0 0 24 24;" xml:space="preserve">
<style type="text/css">
	.st0{fill:#E0E0E0;}
	.st1{fill:#FDFFFF;}
	.st2{fill:#E6E6E4;}
	.st3{fill:#287A99;}
	.st4{fill:#35A8E0;}
	.st5{fill:#2F8AAF;}
</style>
<g>
	<polygon class="st0" points="11.9,9.7 13.9,10.8 11.9,12 9.9,10.8 	"/>
	<polygon class="st1" points="9.9,10.8 9.9,13.1 11.9,14.3 11.9,12 	"/>
	<polygon class="st2" points="11.9,14.3 11.9,12 13.9,10.8 13.9,13.1 	"/>
	<polygon class="st0" points="14.3,11.1 16.3,12.3 14.3,13.4 12.3,12.3 	"/>
	<polygon class="st1" points="12.3,12.3 12.3,14.5 14.3,15.7 14.3,13.4 	"/>
	<polygon class="st2" points="14.3,15.7 14.3,13.4 16.3,12.3 16.3,14.6 	"/>
	<polygon class="st0" points="16.8,12.5 18.7,13.7 16.8,14.8 14.8,13.7 	"/>
	<polygon class="st1" points="14.8,13.7 14.8,16 16.8,17.1 16.8,14.8 	"/>
	<polygon class="st2" points="16.8,17.1 16.8,14.8 18.7,13.7 18.7,16 	"/>
	<polygon class="st0" points="19.2,13.9 21.2,15.1 19.2,16.2 17.2,15.1 	"/>
	<polygon class="st1" points="17.2,15.1 17.2,17.4 19.2,18.5 19.2,16.2 	"/>
	<polygon class="st2" points="19.2,18.5 19.2,16.2 21.2,15.1 21.2,17.4 	"/>
	<polygon class="st0" points="11.9,6.9 13.9,8 11.9,9.2 9.9,8 	"/>
	<polygon class="st1" points="9.9,8 9.9,10.3 11.9,11.5 11.9,9.2 	"/>
	<polygon class="st2" points="11.9,11.5 11.9,9.2 13.9,8 13.9,10.3 	"/>
	<polygon class="st0" points="14.3,8.3 16.3,9.4 14.3,10.6 12.3,9.4 	"/>
	<polygon class="st1" points="12.3,9.4 12.3,11.7 14.3,12.9 14.3,10.6 	"/>
	<polygon class="st2" points="14.3,12.9 14.3,10.6 16.3,9.4 16.3,11.7 	"/>
	<polygon class="st0" points="16.8,9.7 18.7,10.9 16.8,12 14.8,10.9 	"/>
	<polygon class="st1" points="14.8,10.9 14.8,13.2 16.8,14.3 16.8,12 	"/>
	<polygon class="st2" points="16.8,14.3 16.8,12 18.7,10.9 18.7,13.2 	"/>
	<polygon class="st0" points="19.2,11.1 21.2,12.3 19.2,13.4 17.2,12.3 	"/>
	<polygon class="st1" points="17.2,12.3 17.2,14.6 19.2,15.7 19.2,13.4 	"/>
	<polygon class="st2" points="19.2,15.7 19.2,13.4 21.2,12.3 21.2,14.6 	"/>
	<polygon class="st0" points="11.9,4.1 13.9,5.2 11.9,6.4 9.9,5.2 	"/>
	<polygon class="st1" points="9.9,5.2 9.9,7.5 11.9,8.7 11.9,6.4 	"/>
	<polygon class="st2" points="11.9,8.7 11.9,6.4 13.9,5.2 13.9,7.5 	"/>
	<polygon class="st0" points="14.3,5.5 16.3,6.6 14.3,7.8 12.3,6.6 	"/>
	<polygon class="st1" points="12.3,6.6 12.3,8.9 14.3,10.1 14.3,7.8 	"/>
	<polygon class="st2" points="14.3,10.1 14.3,7.8 16.3,6.6 16.3,8.9 	"/>
	<polygon class="st0" points="16.8,6.9 18.7,8.1 16.8,9.2 14.8,8.1 	"/>
	<polygon class="st1" points="14.8,8.1 14.8,10.3 16.8,11.5 16.8,9.2 	"/>
	<polygon class="st2" points="16.8,11.5 16.8,9.2 18.7,8.1 18.7,10.3 	"/>
	<polygon class="st0" points="19.2,8.3 21.2,9.5 19.2,10.6 17.2,9.5 	"/>
	<polygon class="st1" points="17.2,9.5 17.2,11.8 19.2,12.9 19.2,10.6 	"/>
	<polygon class="st2" points="19.2,12.9 19.2,10.6 21.2,9.5 21.2,11.8 	"/>
	<polygon class="st0" points="11.9,1.3 13.9,2.4 11.9,3.6 9.9,2.4 	"/>
	<polygon class="st1" points="9.9,2.4 9.9,4.7 11.9,5.9 11.9,3.6 	"/>
	<polygon class="st2" points="11.9,5.9 11.9,3.6 13.9,2.4 13.9,4.7 	"/>
	<polygon class="st0" points="14.3,2.7 16.3,3.8 14.3,5 12.3,3.8 	"/>
	<polygon class="st1" points="12.3,3.8 12.3,6.1 14.3,7.3 14.3,5 	"/>
	<polygon class="st2" points="14.3,7.3 14.3,5 16.3,3.8 16.3,6.1 	"/>
	<polygon class="st0" points="16.8,4.1 18.7,5.2 16.8,6.4 14.8,5.2 	"/>
	<polygon class="st1" points="14.8,5.2 14.8,7.5 16.8,8.7 16.8,6.4 	"/>
	<polygon class="st2" points="16.8,8.7 16.8,6.4 18.7,5.2 18.7,7.5 	"/>
	<polygon class="st0" points="19.2,5.5 21.2,6.7 19.2,7.8 17.2,6.7 	"/>
	<polygon class="st1" points="17.2,6.7 17.2,8.9 19.2,10.1 19.2,7.8 	"/>
	<polygon class="st2" points="19.2,10.1 19.2,7.8 21.2,6.7 21.2,8.9 	"/>
	<polygon class="st0" points="9.4,11.1 11.4,12.3 9.4,13.4 7.5,12.3 	"/>
	<polygon class="st1" points="7.5,12.3 7.5,14.5 9.4,15.7 9.4,13.4 	"/>
	<polygon class="st2" points="9.4,15.7 9.4,13.4 11.4,12.3 11.4,14.6 	"/>
	<polygon class="st3" points="11.9,12.5 13.9,13.7 11.9,14.8 9.9,13.7 	"/>
	<polygon class="st4" points="9.9,13.7 9.9,16 11.9,17.1 11.9,14.8 	"/>
	<polygon class="st5" points="11.9,17.1 11.9,14.8 13.9,13.7 13.9,16 	"/>
	<polygon class="st3" points="14.3,13.9 16.3,15.1 14.3,16.2 12.3,15.1 	"/>
	<polygon class="st4" points="12.3,15.1 12.3,17.4 14.3,18.5 14.3,16.2 	"/>
	<polygon class="st5" points="14.3,18.5 14.3,16.2 16.3,15.1 16.3,17.4 	"/>
	<polygon class="st3" points="16.8,15.3 18.7,16.5 16.8,17.6 14.8,16.5 	"/>
	<polygon class="st4" points="14.8,16.5 14.8,18.8 16.8,19.9 16.8,17.6 	"/>
	<polygon class="st5" points="16.8,19.9 16.8,17.6 18.7,16.5 18.7,18.8 	"/>
	<polygon class="st0" points="9.4,8.3 11.4,9.4 9.4,10.6 7.5,9.4 	"/>
	<polygon class="st1" points="7.5,9.4 7.5,11.7 9.4,12.9 9.4,10.6 	"/>
	<polygon class="st2" points="9.4,12.9 9.4,10.6 11.4,9.4 11.4,11.7 	"/>
	<polygon class="st3" points="11.9,9.7 13.9,10.9 11.9,12 9.9,10.9 	"/>
	<polygon class="st4" points="9.9,10.9 9.9,13.2 11.9,14.3 11.9,12 	"/>
	<polygon class="st5" points="11.9,14.3 11.9,12 13.9,10.9 13.9,13.2 	"/>
	<polygon class="st0" points="9.4,5.5 11.4,6.6 9.4,7.8 7.5,6.6 	"/>
	<polygon class="st1" points="7.5,6.6 7.5,8.9 9.4,10.1 9.4,7.8 	"/>
	<polygon class="st2" points="9.4,10.1 9.4,7.8 11.4,6.6 11.4,8.9 	"/>
	<polygon class="st3" points="14.3,8.3 16.3,9.5 14.3,10.6 12.3,9.5 	"/>
	<polygon class="st4" points="12.3,9.5 12.3,11.8 14.3,12.9 14.3,10.6 	"/>
	<polygon class="st5" points="14.3,12.9 14.3,10.6 16.3,9.5 16.3,11.8 	"/>
	<polygon class="st0" points="9.4,2.7 11.4,3.8 9.4,5 7.5,3.8 	"/>
	<polygon class="st1" points="7.5,3.8 7.5,6.1 9.4,7.3 9.4,5 	"/>
	<polygon class="st2" points="9.4,7.3 9.4,5 11.4,3.8 11.4,6.1 	"/>
	<polygon class="st3" points="11.9,4.1 13.9,5.2 11.9,6.4 9.9,5.2 	"/>
	<polygon class="st4" points="9.9,5.2 9.9,7.5 11.9,8.7 11.9,6.4 	"/>
	<polygon class="st5" points="11.9,8.7 11.9,6.4 13.9,5.2 13.9,7.5 	"/>
	<polygon class="st3" points="14.3,5.5 16.3,6.7 14.3,7.8 12.3,6.7 	"/>
	<polygon class="st4" points="12.3,6.7 12.3,8.9 14.3,10.1 14.3,7.8 	"/>
	<polygon class="st5" points="14.3,10.1 14.3,7.8 16.3,6.7 16.3,8.9 	"/>
	<polygon class="st3" points="16.8,6.9 18.7,8.1 16.8,9.2 14.8,8.1 	"/>
	<polygon class="st4" points="14.8,8.1 14.8,10.4 16.8,11.5 16.8,9.2 	"/>
	<polygon class="st5" points="16.8,11.5 16.8,9.2 18.7,8.1 18.7,10.4 	"/>
	<polygon class="st0" points="7,12.5 9,13.7 7,14.8 5,13.7 	"/>
	<polygon class="st1" points="5,13.7 5,16 7,17.1 7,14.8 	"/>
	<polygon class="st2" points="7,17.1 7,14.8 9,13.7 9,16 	"/>
	<polygon class="st0" points="7,9.7 9,10.9 7,12 5,10.9 	"/>
	<polygon class="st1" points="5,10.9 5,13.2 7,14.3 7,12 	"/>
	<polygon class="st2" points="7,14.3 7,12 9,10.9 9,13.2 	"/>
	<polygon class="st0" points="7,6.9 9,8.1 7,9.2 5,8.1 	"/>
	<polygon class="st1" points="5,8.1 5,10.3 7,11.5 7,9.2 	"/>
	<polygon class="st2" points="7,11.5 7,9.2 9,8.1 9,10.3 	"/>
	<polygon class="st0" points="7,4.1 9,5.2 7,6.4 5,5.2 	"/>
	<polygon class="st1" points="5,5.2 5,7.5 7,8.7 7,6.4 	"/>
	<polygon class="st2" points="7,8.7 7,6.4 9,5.2 9,7.5 	"/>
	<polygon class="st0" points="4.6,13.9 6.6,15.1 4.6,16.2 2.6,15.1 	"/>
	<polygon class="st1" points="2.6,15.1 2.6,17.4 4.6,18.5 4.6,16.2 	"/>
	<polygon class="st2" points="4.6,18.5 4.6,16.2 6.6,15.1 6.6,17.4 	"/>
	<polygon class="st0" points="4.6,11.1 6.6,12.3 4.6,13.4 2.6,12.3 	"/>
	<polygon class="st1" points="2.6,12.3 2.6,14.6 4.6,15.7 4.6,13.4 	"/>
	<polygon class="st2" points="4.6,15.7 4.6,13.4 6.6,12.3 6.6,14.6 	"/>
	<polygon class="st0" points="4.6,8.3 6.6,9.5 4.6,10.6 2.6,9.5 	"/>
	<polygon class="st1" points="2.6,9.5 2.6,11.8 4.6,12.9 4.6,10.6 	"/>
	<polygon class="st2" points="4.6,12.9 4.6,10.6 6.6,9.5 6.6,11.8 	"/>
	<polygon class="st0" points="4.6,5.5 6.6,6.7 4.6,7.8 2.6,6.7 	"/>
	<polygon class="st1" points="2.6,6.7 2.6,8.9 4.6,10.1 4.6,7.8 	"/>
	<polygon class="st2" points="4.6,10.1 4.6,7.8 6.6,6.7 6.6,8.9 	"/>
</g>
</svg>
