<?xml version="1.0" encoding="utf-8"?>
<!-- Generator: Adobe Illustrator 23.0.1, SVG Export Plug-In . SVG Version: 6.00 Build 0)  -->
<svg version="1.1" xmlns="http://www.w3.org/2000/svg" xmlns:xlink="http://www.w3.org/1999/xlink" x="0px" y="0px"
	 viewBox="0 0 1133.9 270" style="enable-background:new 0 0 1133.9 270;" xml:space="preserve">
<style type="text/css">
	.st0{fill:#FDFDFD;}
	.st1{fill:#D8D9D9;}
	.st2{fill:#DFDFDD;}
	.st3{fill:#2D7B97;}
	.st4{fill:#27AAE1;}
	.st5{fill:#318BAC;}
</style>
<g id="text_light_dark_bg">
</g>
<g id="Logo_1_">
	<g>
		<g>
			<path class="st0" d="M231.1,52h37.6c24.3,0,42.1,7.4,42.1,29c0,11.2-6.5,22-20.2,25.6v0.7c16.9,2.9,26.3,12.1,26.3,27.9
				c0,23.6-19.3,34.6-45.2,34.6h-40.7V52z M267,100.7c16.4,0,23.4-6.3,23.4-17.3c0-10.8-7.7-15.3-23-15.3H252v32.6H267z
				 M269.7,153.5c17.3,0,27-6.5,27-19.8c0-12.2-9.4-18-27-18H252v37.8H269.7z"/>
			<path class="st0" d="M336.8,42.6h20.7v105.5c0,5,2.3,6.8,4.5,6.8c0.9,0,1.6,0,3.2-0.4l2.7,15.5c-2.5,1.1-6.1,1.8-11,1.8
				c-14.8,0-20.2-9.5-20.2-24.8V42.6z"/>
			<path class="st0" d="M421.8,79.1c22.1,0,42.1,16.9,42.1,46.4c0,29.3-20,46.3-42.1,46.3c-22,0-41.9-16.9-41.9-46.3
				C379.8,96.1,399.8,79.1,421.8,79.1z M421.8,154.9c13,0,20.9-11.7,20.9-29.3c0-17.8-7.9-29.5-20.9-29.5c-13,0-20.7,11.7-20.7,29.5
				C401.1,143.2,408.8,154.9,421.8,154.9z"/>
			<path class="st0" d="M522.9,79.1c11.3,0,20,4.5,25.9,10.3l-9.9,13.1c-4.7-4.1-9.4-6.5-14.9-6.5c-14.2,0-24.1,11.7-24.1,29.5
				c0,17.6,9.7,29.3,23.6,29.3c7.2,0,13.3-3.6,18.2-7.6l8.6,13.1c-8.3,7.4-18.9,11.3-29,11.3c-24.1,0-42.7-16.9-42.7-46.3
				C478.6,96.1,499.3,79.1,522.9,79.1z"/>
			<path class="st0" d="M567.6,42.6h20.3V122h0.5l32.8-40.7h22.7l-30.2,36l33.3,52.4h-22.5l-22.7-38.3l-13.9,15.8v22.5h-20.3V42.6z"
				/>
			<path class="st0" d="M644.2,116.8h42.8v15.1h-42.8V116.8z"/>
			<path class="st0" d="M709.6,52h20.9V152h49v17.6h-69.8V52z"/>
			<path class="st0" d="M832,79.1c22.1,0,42.1,16.9,42.1,46.4c0,29.3-20,46.3-42.1,46.3c-22,0-41.9-16.9-41.9-46.3
				C790,96.1,810,79.1,832,79.1z M832,154.9c13,0,20.9-11.7,20.9-29.3c0-17.8-7.9-29.5-20.9-29.5c-13,0-20.7,11.7-20.7,29.5
				C811.3,143.2,819,154.9,832,154.9z"/>
			<path class="st0" d="M901.3,166.8v-0.7c-4.5-2.9-7.9-7.6-7.9-14.8c0-6.8,4.7-12.8,9.7-16.4v-0.7c-5.9-4.5-11.5-13-11.5-23.4
				c0-20.3,16.4-31.7,34.9-31.7c4.9,0,9.4,0.9,13,2.2h31.7v15.3h-16.2c2.9,3.4,5,8.8,5,14.9c0,19.6-14.8,30.1-33.5,30.1
				c-3.8,0-8.1-0.7-12.1-2.3c-2.7,2.3-4.3,4.5-4.3,8.5c0,5,3.6,8.1,14.4,8.1h15.7c21.2,0,32.4,6.5,32.4,21.8
				c0,17.5-18.4,31.1-47.2,31.1c-21.1,0-36.7-7.6-36.7-23C888.7,178.3,893.2,171.8,901.3,166.8z M928.6,195.2
				c14.2,0,23.9-6.7,23.9-14.2c0-6.8-5.6-8.8-15.7-8.8h-12.1c-4.9,0-8.6-0.4-12.1-1.3c-4.7,3.6-6.8,7.6-6.8,11.7
				C906,190.6,914.6,195.2,928.6,195.2z M941.8,110.8c0-11-6.7-17.5-15.3-17.5S911,99.7,911,110.8c0,11.3,6.8,17.8,15.5,17.8
				C934.9,128.6,941.8,122.2,941.8,110.8z"/>
			<path class="st0" d="M985.9,54.1c0-7,5.4-11.9,12.8-11.9c7.4,0,12.8,4.9,12.8,11.9c0,6.8-5.4,11.7-12.8,11.7
				C991.3,65.8,985.9,61,985.9,54.1z M988.2,81.3h20.7v88.4h-20.7V81.3z"/>
			<path class="st0" d="M1073.9,79.1c11.3,0,20,4.5,25.9,10.3l-9.9,13.1c-4.7-4.1-9.4-6.5-14.9-6.5c-14.2,0-24.1,11.7-24.1,29.5
				c0,17.6,9.7,29.3,23.6,29.3c7.2,0,13.3-3.6,18.2-7.6l8.6,13.1c-8.3,7.4-18.9,11.3-29,11.3c-24.1,0-42.7-16.9-42.7-46.3
				C1029.6,96.1,1050.3,79.1,1073.9,79.1z"/>
		</g>
		<g>
			<path class="st0" d="M237.3,199.5h-10.9v-5.6h28.5v5.6H244v32h-6.7V199.5z"/>
			<path class="st0" d="M262.6,193.9h22.7v5.6h-16v9.6h13.5v5.6h-13.5v11.1h16.6v5.6h-23.3V193.9z"/>
			<path class="st0" d="M310.4,193.2c4.6,0,8.4,2.2,10.7,4.8l-3.7,4.1c-1.9-1.9-4-3.1-6.9-3.1c-6.2,0-10.6,5.2-10.6,13.7
				c0,8.6,4,13.8,10.4,13.8c3.3,0,5.8-1.4,7.9-3.7l3.7,4.1c-3.1,3.5-7,5.5-11.7,5.5c-9.6,0-17.1-6.9-17.1-19.4
				C293,200.5,300.7,193.2,310.4,193.2z"/>
			<path class="st0" d="M329.6,193.9h6.7V209h15.3v-15.1h6.7v37.7h-6.7v-16.7h-15.3v16.7h-6.7V193.9z"/>
			<path class="st0" d="M369.2,193.9h6.9l11.8,21.2l3.9,8h0.2c-0.3-3.9-0.9-8.6-0.9-12.8v-16.4h6.4v37.7h-6.9l-11.7-21.2l-3.9-8
				h-0.2c0.3,4,0.9,8.5,0.9,12.7v16.5h-6.4V193.9z"/>
			<path class="st0" d="M406.5,212.5c0-12.2,6.8-19.4,16.6-19.4c9.8,0,16.6,7.2,16.6,19.4c0,12.2-6.8,19.7-16.6,19.7
				C413.3,232.2,406.5,224.7,406.5,212.5z M432.8,212.5c0-8.4-3.8-13.5-9.7-13.5s-9.7,5.1-9.7,13.5c0,8.5,3.8,13.9,9.7,13.9
				S432.8,221,432.8,212.5z"/>
			<path class="st0" d="M448.7,193.9h6.7v32h15.7v5.6h-22.3V193.9z"/>
			<path class="st0" d="M475.3,212.5c0-12.2,6.8-19.4,16.6-19.4c9.8,0,16.6,7.2,16.6,19.4c0,12.2-6.8,19.7-16.6,19.7
				C482.1,232.2,475.3,224.7,475.3,212.5z M501.7,212.5c0-8.4-3.8-13.5-9.7-13.5s-9.7,5.1-9.7,13.5c0,8.5,3.8,13.9,9.7,13.9
				S501.7,221,501.7,212.5z"/>
			<path class="st0" d="M541.9,231.5l-0.3-1.2c-2.4,1.2-5.2,1.9-8.4,1.9c-10,0-17.6-6.9-17.6-19.4c0-12.3,7.8-19.6,18-19.6
				c5.2,0,8.9,2.4,11.2,4.8l-3.7,4.1c-1.9-1.8-4-3.1-7.5-3.1c-6.7,0-11.2,5.2-11.2,13.7c0,8.6,4,13.8,11.5,13.8
				c2.1,0,4.2-0.6,5.4-1.7v-8.1h-7.1v-5.5h13.1v20.4H541.9z"/>
			<path class="st0" d="M561.4,217.5l-11.3-23.7h7.1l4.1,9.6c1.1,2.8,2.1,5.4,3.3,8.3h0.2c1.2-2.9,2.4-5.5,3.5-8.3l4.1-9.6h7
				l-11.3,23.7v14h-6.7V217.5z"/>
			<path class="st0" d="M623.1,231.5l-0.3-1.2c-2.4,1.2-5.2,1.9-8.4,1.9c-10,0-17.6-6.9-17.6-19.4c0-12.3,7.8-19.6,18-19.6
				c5.2,0,8.9,2.4,11.2,4.8l-3.7,4.1c-1.9-1.8-4-3.1-7.5-3.1c-6.7,0-11.2,5.2-11.2,13.7c0,8.6,4,13.8,11.5,13.8
				c2.1,0,4.2-0.6,5.4-1.7v-8.1h-7.1v-5.5h13.1v20.4H623.1z"/>
			<path class="st0" d="M656.9,231.5l-8.1-14.7H643v14.7h-6.7v-37.7H649c7.8,0,13.8,2.8,13.8,11.2c0,5.8-3,9.2-7.5,10.8l9,15.7
				H656.9z M643,211.5h5.4c5.1,0,7.9-2.2,7.9-6.5c0-4.3-2.8-5.8-7.9-5.8H643V211.5z"/>
			<path class="st0" d="M670.3,212.5c0-12.2,6.8-19.4,16.6-19.4c9.8,0,16.6,7.2,16.6,19.4c0,12.2-6.8,19.7-16.6,19.7
				C677.1,232.2,670.3,224.7,670.3,212.5z M696.6,212.5c0-8.4-3.8-13.5-9.7-13.5s-9.7,5.1-9.7,13.5c0,8.5,3.8,13.9,9.7,13.9
				S696.6,221,696.6,212.5z"/>
			<path class="st0" d="M712.4,193.9h6.7v21.7c0,8.2,3.1,10.9,7.6,10.9c4.6,0,7.8-2.7,7.8-10.9v-21.7h6.4V215
				c0,12.4-5.5,17.2-14.2,17.2c-8.7,0-14.3-4.8-14.3-17.2V193.9z"/>
			<path class="st0" d="M751.7,193.9h12.7c8.2,0,14.3,2.9,14.3,11.6c0,8.4-6.2,12.2-14.3,12.2h-6v13.8h-6.7V193.9z M763.8,212.4
				c5.6,0,8.3-2.2,8.3-6.9c0-4.7-2.8-6.3-8.3-6.3h-5.5v13.1H763.8z"/>
			<path class="st0" d="M800.5,193.9h6.7v32h15.7v5.6h-22.3V193.9z"/>
			<path class="st0" d="M831.5,199.5h-10.9v-5.6h28.5v5.6h-10.9v32h-6.7V199.5z"/>
			<path class="st0" d="M856.8,193.9h10.1c11.5,0,18.3,6.2,18.3,18.7c0,12.5-6.8,19-18,19h-10.4V193.9z M866.4,226.1
				c7.6,0,11.9-4.3,11.9-13.6c0-9.2-4.3-13.2-11.9-13.2h-2.9v26.8H866.4z"/>
		</g>
		<polygon class="st1" points="106.9,116.6 124.3,126.7 107,136.7 89.6,126.7 		"/>
		<polygon class="st0" points="89.6,126.7 89.6,146.7 107,156.7 107,136.7 		"/>
		<polygon class="st2" points="107,156.7 107,136.7 124.3,126.7 124.3,146.7 		"/>
		<polygon class="st1" points="128.2,128.9 145.5,139 128.2,149 110.8,139 		"/>
		<polygon class="st0" points="110.8,139 110.9,159 128.2,169 128.2,149 		"/>
		<polygon class="st2" points="128.2,169 128.2,149 145.5,139 145.5,159 		"/>
		<polygon class="st1" points="149.4,141.2 166.8,151.3 149.5,161.3 132.1,151.3 		"/>
		<polygon class="st0" points="132.1,151.3 132.2,171.3 149.5,181.3 149.5,161.3 		"/>
		<polygon class="st2" points="149.5,181.3 149.5,161.3 166.8,151.3 166.8,171.3 		"/>
		<polygon class="st1" points="170.7,153.5 188.1,163.6 170.8,173.5 153.4,163.6 		"/>
		<polygon class="st0" points="153.4,163.6 153.4,183.5 170.8,193.5 170.8,173.5 		"/>
		<polygon class="st2" points="170.8,193.5 170.8,173.5 188.1,163.6 188.1,183.6 		"/>
		<polygon class="st1" points="106.9,92.2 124.3,102.3 107,112.2 89.6,102.3 		"/>
		<polygon class="st0" points="89.6,102.3 89.6,122.2 107,132.2 107,112.2 		"/>
		<polygon class="st2" points="107,132.2 107,112.2 124.3,102.3 124.3,122.3 		"/>
		<polygon class="st1" points="128.2,104.5 145.5,114.5 128.2,124.5 110.8,114.5 		"/>
		<polygon class="st0" points="110.8,114.5 110.9,134.5 128.2,144.5 128.2,124.5 		"/>
		<polygon class="st2" points="128.2,144.5 128.2,124.5 145.5,114.5 145.5,134.5 		"/>
		<polygon class="st1" points="149.4,116.7 166.8,126.8 149.5,136.8 132.1,126.8 		"/>
		<polygon class="st0" points="132.1,126.8 132.2,146.8 149.5,156.8 149.5,136.8 		"/>
		<polygon class="st2" points="149.5,156.8 149.5,136.8 166.8,126.8 166.8,146.8 		"/>
		<polygon class="st1" points="170.7,129 188.1,139.1 170.8,149.1 153.4,139.1 		"/>
		<polygon class="st0" points="153.4,139.1 153.4,159.1 170.8,169.1 170.8,149.1 		"/>
		<polygon class="st2" points="170.8,169.1 170.8,149.1 188.1,139.1 188.1,159.1 		"/>
		<polygon class="st1" points="106.9,67.7 124.3,77.8 107,87.8 89.6,77.8 		"/>
		<polygon class="st0" points="89.6,77.8 89.6,97.8 107,107.8 107,87.8 		"/>
		<polygon class="st2" points="107,107.8 107,87.8 124.3,77.8 124.3,97.8 		"/>
		<polygon class="st1" points="128.2,80 145.5,90.1 128.2,100.1 110.8,90.1 		"/>
		<polygon class="st0" points="110.8,90.1 110.9,110.1 128.2,120.1 128.2,100.1 		"/>
		<polygon class="st2" points="128.2,120.1 128.2,100.1 145.5,90.1 145.5,110.1 		"/>
		<polygon class="st1" points="149.4,92.3 166.8,102.3 149.5,112.3 132.1,102.3 		"/>
		<polygon class="st0" points="132.1,102.3 132.2,122.3 149.5,132.3 149.5,112.3 		"/>
		<polygon class="st2" points="149.5,132.3 149.5,112.3 166.8,102.3 166.8,122.3 		"/>
		<polygon class="st1" points="170.7,104.6 188.1,114.6 170.8,124.6 153.4,114.6 		"/>
		<polygon class="st0" points="153.4,114.6 153.4,134.6 170.8,144.6 170.8,124.6 		"/>
		<polygon class="st2" points="170.8,144.6 170.8,124.6 188.1,114.6 188.1,134.6 		"/>
		<polygon class="st1" points="106.9,43.2 124.3,53.3 107,63.3 89.6,53.3 		"/>
		<polygon class="st0" points="89.6,53.3 89.6,73.3 107,83.3 107,63.3 		"/>
		<polygon class="st2" points="107,83.3 107,63.3 124.3,53.3 124.3,73.3 		"/>
		<polygon class="st1" points="128.2,55.5 145.5,65.6 128.2,75.6 110.8,65.6 		"/>
		<polygon class="st0" points="110.8,65.6 110.9,85.6 128.2,95.6 128.2,75.6 		"/>
		<polygon class="st2" points="128.2,95.6 128.2,75.6 145.5,65.6 145.5,85.6 		"/>
		<polygon class="st1" points="149.4,67.8 166.8,77.9 149.5,87.9 132.1,77.9 		"/>
		<polygon class="st0" points="132.1,77.9 132.2,97.9 149.5,107.9 149.5,87.9 		"/>
		<polygon class="st2" points="149.5,107.9 149.5,87.9 166.8,77.9 166.8,97.9 		"/>
		<polygon class="st1" points="170.7,80.1 188.1,90.2 170.8,100.1 153.4,90.2 		"/>
		<polygon class="st0" points="153.4,90.2 153.4,110.1 170.8,120.2 170.8,100.1 		"/>
		<polygon class="st2" points="170.8,120.2 170.8,100.1 188.1,90.2 188.1,110.2 		"/>
		<polygon class="st1" points="85.6,128.9 103,139 85.7,149 68.3,139 		"/>
		<polygon class="st0" points="68.3,139 68.4,159 85.7,169 85.7,149 		"/>
		<polygon class="st2" points="85.7,169 85.7,149 103,139 103,159 		"/>
		<polygon class="st3" points="106.9,141.2 124.3,151.3 107,161.3 89.6,151.3 		"/>
		<polygon class="st4" points="89.6,151.3 89.6,171.3 107,181.3 107,161.3 		"/>
		<polygon class="st5" points="107,181.3 107,161.3 124.3,151.3 124.3,171.3 		"/>
		<polygon class="st3" points="128.2,153.5 145.5,163.6 128.2,173.5 110.8,163.6 		"/>
		<polygon class="st4" points="110.8,163.6 110.9,183.5 128.2,193.5 128.2,173.5 		"/>
		<polygon class="st5" points="128.2,193.5 128.2,173.5 145.5,163.6 145.5,183.6 		"/>
		<polygon class="st3" points="149.4,165.8 166.8,175.8 149.5,185.8 132.1,175.8 		"/>
		<polygon class="st4" points="132.1,175.8 132.2,195.8 149.5,205.8 149.5,185.8 		"/>
		<polygon class="st5" points="149.5,205.8 149.5,185.8 166.8,175.8 166.8,195.8 		"/>
		<polygon class="st1" points="85.6,104.5 103,114.5 85.7,124.5 68.3,114.5 		"/>
		<polygon class="st0" points="68.3,114.5 68.4,134.5 85.7,144.5 85.7,124.5 		"/>
		<polygon class="st2" points="85.7,144.5 85.7,124.5 103,114.5 103,134.5 		"/>
		<polygon class="st3" points="106.9,116.7 124.3,126.8 107,136.8 89.6,126.8 		"/>
		<polygon class="st4" points="89.6,126.8 89.6,146.8 107,156.8 107,136.8 		"/>
		<polygon class="st5" points="107,156.8 107,136.8 124.3,126.8 124.3,146.8 		"/>
		<polygon class="st3" points="128.2,129 145.5,139.1 128.2,149.1 110.8,139.1 		"/>
		<polygon class="st4" points="110.8,139.1 110.9,159.1 128.2,169.1 128.2,149.1 		"/>
		<polygon class="st5" points="128.2,169.1 128.2,149.1 145.5,139.1 145.5,159.1 		"/>
		<polygon class="st3" points="149.4,141.3 166.8,151.4 149.5,161.4 132.1,151.4 		"/>
		<polygon class="st4" points="132.1,151.4 132.2,171.4 149.5,181.4 149.5,161.4 		"/>
		<polygon class="st5" points="149.5,181.4 149.5,161.4 166.8,151.4 166.8,171.4 		"/>
		<polygon class="st1" points="85.6,80 103,90.1 85.7,100.1 68.3,90.1 		"/>
		<polygon class="st0" points="68.3,90.1 68.4,110.1 85.7,120.1 85.7,100.1 		"/>
		<polygon class="st2" points="85.7,120.1 85.7,100.1 103,90.1 103,110.1 		"/>
		<polygon class="st3" points="106.9,92.3 124.3,102.3 107,112.3 89.6,102.3 		"/>
		<polygon class="st4" points="89.6,102.3 89.6,122.3 107,132.3 107,112.3 		"/>
		<polygon class="st5" points="107,132.3 107,112.3 124.3,102.3 124.3,122.3 		"/>
		<polygon class="st3" points="128.2,104.6 145.5,114.6 128.2,124.6 110.8,114.6 		"/>
		<polygon class="st4" points="110.8,114.6 110.9,134.6 128.2,144.6 128.2,124.6 		"/>
		<polygon class="st5" points="128.2,144.6 128.2,124.6 145.5,114.6 145.5,134.6 		"/>
		<polygon class="st3" points="149.4,116.8 166.8,126.9 149.5,136.9 132.1,126.9 		"/>
		<polygon class="st4" points="132.1,126.9 132.2,146.9 149.5,156.9 149.5,136.9 		"/>
		<polygon class="st5" points="149.5,156.9 149.5,136.9 166.8,126.9 166.8,146.9 		"/>
		<polygon class="st1" points="85.6,55.5 103,65.6 85.7,75.6 68.3,65.6 		"/>
		<polygon class="st0" points="68.3,65.6 68.4,85.6 85.7,95.6 85.7,75.6 		"/>
		<polygon class="st2" points="85.7,95.6 85.7,75.6 103,65.6 103,85.6 		"/>
		<polygon class="st3" points="106.9,67.8 124.3,77.9 107,87.9 89.6,77.9 		"/>
		<polygon class="st4" points="89.6,77.9 89.6,97.9 107,107.9 107,87.9 		"/>
		<polygon class="st5" points="107,107.9 107,87.9 124.3,77.9 124.3,97.9 		"/>
		<polygon class="st3" points="128.2,80.1 145.5,90.2 128.2,100.1 110.8,90.2 		"/>
		<polygon class="st4" points="110.8,90.2 110.9,110.1 128.2,120.2 128.2,100.1 		"/>
		<polygon class="st5" points="128.2,120.2 128.2,100.1 145.5,90.2 145.5,110.2 		"/>
		<polygon class="st3" points="149.4,92.4 166.8,102.4 149.5,112.4 132.1,102.4 		"/>
		<polygon class="st4" points="132.1,102.4 132.2,122.4 149.5,132.4 149.5,112.4 		"/>
		<polygon class="st5" points="149.5,132.4 149.5,112.4 166.8,102.4 166.8,122.4 		"/>
		<polygon class="st1" points="64.3,141.2 81.7,151.3 64.4,161.3 47,151.3 		"/>
		<polygon class="st0" points="47,151.3 47.1,171.3 64.4,181.3 64.4,161.3 		"/>
		<polygon class="st2" points="64.4,181.3 64.4,161.3 81.7,151.3 81.7,171.3 		"/>
		<polygon class="st3" points="85.6,153.5 103,163.6 85.7,173.5 68.3,163.6 		"/>
		<polygon class="st4" points="68.3,163.6 68.4,183.5 85.7,193.5 85.7,173.5 		"/>
		<polygon class="st5" points="85.7,193.5 85.7,173.5 103,163.6 103,183.6 		"/>
		<polygon class="st1" points="64.3,116.7 81.7,126.8 64.4,136.8 47,126.8 		"/>
		<polygon class="st0" points="47,126.8 47.1,146.8 64.4,156.8 64.4,136.8 		"/>
		<polygon class="st2" points="64.4,156.8 64.4,136.8 81.7,126.8 81.7,146.8 		"/>
		<polygon class="st3" points="85.6,129 103,139.1 85.7,149.1 68.3,139.1 		"/>
		<polygon class="st4" points="68.3,139.1 68.4,159.1 85.7,169.1 85.7,149.1 		"/>
		<polygon class="st5" points="85.7,169.1 85.7,149.1 103,139.1 103,159.1 		"/>
		<polygon class="st1" points="64.3,92.3 81.7,102.3 64.4,112.3 47,102.3 		"/>
		<polygon class="st0" points="47,102.3 47.1,122.3 64.4,132.3 64.4,112.3 		"/>
		<polygon class="st2" points="64.4,132.3 64.4,112.3 81.7,102.3 81.7,122.3 		"/>
		<polygon class="st3" points="85.6,104.6 103,114.6 85.7,124.6 68.3,114.6 		"/>
		<polygon class="st4" points="68.3,114.6 68.4,134.6 85.7,144.6 85.7,124.6 		"/>
		<polygon class="st5" points="85.7,144.6 85.7,124.6 103,114.6 103,134.6 		"/>
		<polygon class="st1" points="64.3,67.8 81.7,77.9 64.4,87.9 47,77.9 		"/>
		<polygon class="st0" points="47,77.9 47.1,97.9 64.4,107.9 64.4,87.9 		"/>
		<polygon class="st2" points="64.4,107.9 64.4,87.9 81.7,77.9 81.7,97.9 		"/>
		<polygon class="st3" points="85.6,80.1 103,90.2 85.7,100.1 68.3,90.2 		"/>
		<polygon class="st4" points="68.3,90.2 68.4,110.1 85.7,120.2 85.7,100.1 		"/>
		<polygon class="st5" points="85.7,120.2 85.7,100.1 103,90.2 103,110.2 		"/>
		<polygon class="st1" points="43.1,153.5 60.4,163.6 43.2,173.5 25.8,163.6 		"/>
		<polygon class="st0" points="25.8,163.6 25.8,183.5 43.2,193.5 43.2,173.5 		"/>
		<polygon class="st2" points="43.2,193.5 43.2,173.5 60.4,163.6 60.4,183.6 		"/>
		<polygon class="st3" points="64.3,165.8 81.7,175.8 64.4,185.8 47,175.8 		"/>
		<polygon class="st4" points="47,175.8 47.1,195.8 64.4,205.8 64.4,185.8 		"/>
		<polygon class="st5" points="64.4,205.8 64.4,185.8 81.7,175.8 81.7,195.8 		"/>
		<polygon class="st1" points="43.1,129 60.4,139.1 43.2,149.1 25.8,139.1 		"/>
		<polygon class="st0" points="25.8,139.1 25.8,159.1 43.2,169.1 43.2,149.1 		"/>
		<polygon class="st2" points="43.2,169.1 43.2,149.1 60.4,139.1 60.4,159.1 		"/>
		<polygon class="st3" points="64.3,141.3 81.7,151.4 64.4,161.4 47,151.4 		"/>
		<polygon class="st4" points="47,151.4 47.1,171.4 64.4,181.4 64.4,161.4 		"/>
		<polygon class="st5" points="64.4,181.4 64.4,161.4 81.7,151.4 81.7,171.4 		"/>
		<polygon class="st1" points="43.1,104.6 60.4,114.6 43.2,124.6 25.8,114.6 		"/>
		<polygon class="st0" points="25.8,114.6 25.8,134.6 43.2,144.6 43.2,124.6 		"/>
		<polygon class="st2" points="43.2,144.6 43.2,124.6 60.4,114.6 60.4,134.6 		"/>
		<polygon class="st3" points="64.3,116.8 81.7,126.9 64.4,136.9 47,126.9 		"/>
		<polygon class="st4" points="47,126.9 47.1,146.9 64.4,156.9 64.4,136.9 		"/>
		<polygon class="st5" points="64.4,156.9 64.4,136.9 81.7,126.9 81.7,146.9 		"/>
		<polygon class="st1" points="43.1,80.1 60.4,90.2 43.2,100.1 25.8,90.2 		"/>
		<polygon class="st0" points="25.8,90.2 25.8,110.1 43.2,120.2 43.2,100.1 		"/>
		<polygon class="st2" points="43.2,120.2 43.2,100.1 60.4,90.2 60.4,110.2 		"/>
		<polygon class="st3" points="64.3,92.4 81.7,102.4 64.4,112.4 47,102.4 		"/>
		<polygon class="st4" points="47,102.4 47.1,122.4 64.4,132.4 64.4,112.4 		"/>
		<polygon class="st5" points="64.4,132.4 64.4,112.4 81.7,102.4 81.7,122.4 		"/>
		<polygon class="st1" points="106.9,165.8 124.3,175.8 107,185.8 89.6,175.8 		"/>
		<polygon class="st0" points="89.6,175.8 89.6,195.8 107,205.8 107,185.8 		"/>
		<polygon class="st2" points="107,205.8 107,185.8 124.3,175.8 124.3,195.8 		"/>
		<polygon class="st1" points="128.2,178 145.5,188.1 128.2,198.1 110.8,188.1 		"/>
		<polygon class="st0" points="110.8,188.1 110.9,208.1 128.2,218.1 128.2,198.1 		"/>
		<polygon class="st2" points="128.2,218.1 128.2,198.1 145.5,188.1 145.5,208.1 		"/>
		<polygon class="st1" points="106.9,141.3 124.3,151.4 107,161.4 89.6,151.4 		"/>
		<polygon class="st0" points="89.6,151.4 89.6,171.4 107,181.4 107,161.4 		"/>
		<polygon class="st2" points="107,181.4 107,161.4 124.3,151.4 124.3,171.4 		"/>
		<polygon class="st1" points="128.2,153.6 145.5,163.7 128.2,173.6 110.8,163.7 		"/>
		<polygon class="st0" points="110.8,163.7 110.9,183.6 128.2,193.6 128.2,173.6 		"/>
		<polygon class="st2" points="128.2,193.6 128.2,173.6 145.5,163.7 145.5,183.7 		"/>
		<polygon class="st1" points="85.6,178 103,188.1 85.7,198.1 68.3,188.1 		"/>
		<polygon class="st0" points="68.3,188.1 68.4,208.1 85.7,218.1 85.7,198.1 		"/>
		<polygon class="st2" points="85.7,218.1 85.7,198.1 103,188.1 103,208.1 		"/>
		<polygon class="st1" points="106.9,190.3 124.3,200.4 107,210.4 89.6,200.4 		"/>
		<polygon class="st0" points="89.6,200.4 89.6,220.4 107,230.4 107,210.4 		"/>
		<polygon class="st2" points="107,230.4 107,210.4 124.3,200.4 124.3,220.4 		"/>
		<polygon class="st1" points="85.6,153.6 103,163.7 85.7,173.6 68.3,163.7 		"/>
		<polygon class="st0" points="68.3,163.7 68.4,183.6 85.7,193.6 85.7,173.6 		"/>
		<polygon class="st2" points="85.7,193.6 85.7,173.6 103,163.7 103,183.7 		"/>
	</g>
</g>
</svg>
