<svg xmlns="http://www.w3.org/2000/svg" xmlns:xlink="http://www.w3.org/1999/xlink" x="0" y="0" enable-background="new 0 0 160 160" version="1.1" viewBox="0 0 160 160" xml:space="preserve"><style type="text/css">.st0{display:none}.st1{fill:none;stroke:#323e50;stroke-width:15;stroke-linecap:round;stroke-miterlimit:10}.st1,.st2{display:inline}.st3{fill:#323e50}.st4,.st5{fill:none;stroke:#323e50;stroke-width:15;stroke-miterlimit:10}.st4{stroke-linecap:round}.st5{display:inline}</style><g id="ring_1" class="st0"><path d="M80,20c22.2,0,41.6,12.1,52,30" class="st1"/></g><g id="Layer_7" class="st0"><g class="st2"><path d="M87.5,107.6h-11V66.2c-4,3.8-8.7,6.5-14.2,8.3v-10c2.9-0.9,6-2.7,9.3-5.3s5.7-5.7,6.9-9.2h8.9V107.6z" class="st3"/></g></g><g id="ring_2" class="st0"><path d="M80,20c33.1,0,60,26.9,60,60c0,10.9-2.9,21.2-8,30" class="st1"/></g><g id="Layer_7_copy" class="st0"><g class="st2"><path d="M98.2,97.4v10.2H59.7c0.4-3.9,1.7-7.5,3.8-11c2.1-3.5,6.2-8,12.3-13.7c4.9-4.6,8-7.7,9.1-9.4 c1.5-2.3,2.3-4.5,2.3-6.7c0-2.4-0.7-4.3-2-5.6c-1.3-1.3-3.1-2-5.4-2c-2.3,0-4.1,0.7-5.5,2.1c-1.4,1.4-2.1,3.7-2.3,6.9L61,67 c0.7-6,2.7-10.4,6.1-13c3.4-2.6,7.7-3.9,12.9-3.9c5.7,0,10.1,1.5,13.3,4.6c3.2,3,4.8,6.8,4.8,11.4c0,2.6-0.5,5-1.4,7.4 c-0.9,2.3-2.4,4.8-4.4,7.3c-1.3,1.7-3.7,4.1-7.2,7.3c-3.5,3.2-5.7,5.3-6.6,6.3c-0.9,1-1.7,2.1-2.2,3H98.2z" class="st3"/></g></g><g id="ring_3" class="st0"><path d="M80,20c33.1,0,60,26.9,60,60s-26.9,60-60,60" class="st1"/></g><g id="Layer_7_copy_2" class="st0"><g class="st2"><path d="M60.8,91.4l10.6-1.3c0.3,2.7,1.2,4.8,2.7,6.2c1.5,1.4,3.3,2.1,5.4,2.1c2.3,0,4.2-0.9,5.7-2.6 c1.5-1.7,2.3-4,2.3-7c0-2.8-0.7-4.9-2.2-6.6c-1.5-1.6-3.3-2.4-5.4-2.4c-1.4,0-3.1,0.3-5,0.8l1.2-8.9c3,0.1,5.2-0.6,6.8-1.9 s2.3-3.2,2.3-5.4c0-1.9-0.6-3.5-1.7-4.6c-1.1-1.1-2.7-1.7-4.6-1.7c-1.9,0-3.5,0.7-4.8,2c-1.3,1.3-2.1,3.2-2.4,5.7L61.6,64 c0.7-3.5,1.8-6.2,3.2-8.3c1.4-2.1,3.4-3.7,5.9-4.9c2.5-1.2,5.4-1.8,8.5-1.8c5.4,0,9.7,1.7,13,5.2c2.7,2.8,4,6,4,9.5 c0,5-2.7,9-8.2,12c3.3,0.7,5.9,2.3,7.9,4.7c2,2.4,2.9,5.4,2.9,8.9c0,5-1.8,9.3-5.5,12.9c-3.7,3.5-8.2,5.3-13.7,5.3 c-5.2,0-9.5-1.5-12.9-4.5C63.3,100.1,61.3,96.2,60.8,91.4z" class="st3"/></g></g><g id="ring_4" class="st0"><path d="M80,20c33.1,0,60,26.9,60,60s-26.9,60-60,60c-22.2,0-41.6-12.1-52-30" class="st1"/></g><g id="Layer_7_copy_3" class="st0"><g class="st2"><path d="M82.7,107.6V96.1H59.2v-9.6l24.8-36.4h9.2v36.3h7.1v9.6h-7.1v11.5H82.7z M82.7,86.4V66.8L69.5,86.4H82.7z" class="st3"/></g></g><g id="ring_5"><path d="M80,20c33.1,0,60,26.9,60,60s-26.9,60-60,60s-60-26.9-60-60c0-10.9,2.9-21.2,8-30" class="st4"/></g><g id="Layer_7_copy_4"><g><path d="M61.3,92l10.9-1.1c0.3,2.5,1.2,4.4,2.8,5.9c1.5,1.4,3.3,2.2,5.3,2.2c2.3,0,4.2-0.9,5.8-2.8 c1.6-1.9,2.4-4.7,2.4-8.4c0-3.5-0.8-6.2-2.4-7.9c-1.6-1.8-3.6-2.6-6.2-2.6c-3.2,0-6,1.4-8.5,4.2l-8.9-1.3l5.6-29.8h29v10.3H76.6 l-1.7,9.7c2.4-1.2,4.9-1.8,7.5-1.8c4.9,0,9,1.8,12.4,5.3c3.4,3.5,5.1,8.1,5.1,13.8c0,4.7-1.4,8.9-4.1,12.6 c-3.7,5.1-8.9,7.6-15.5,7.6c-5.3,0-9.6-1.4-12.9-4.3C64,100.6,62,96.8,61.3,92z" class="st3"/></g></g><g id="ring_6" class="st0"><circle cx="80" cy="80" r="60" class="st5"/></g><g id="Layer_7_copy_5" class="st0"><g class="st2"><path d="M98.3,63.5l-10.6,1.2c-0.3-2.2-0.9-3.8-2-4.8c-1.1-1-2.5-1.6-4.3-1.6c-2.3,0-4.3,1-5.9,3.1 c-1.6,2.1-2.6,6.4-3,13c2.7-3.2,6.1-4.8,10.2-4.8c4.6,0,8.5,1.7,11.8,5.2c3.3,3.5,4.9,8,4.9,13.5c0,5.9-1.7,10.6-5.2,14.1 c-3.4,3.5-7.9,5.3-13.2,5.3c-5.8,0-10.5-2.2-14.3-6.7c-3.7-4.5-5.6-11.9-5.6-22.1c0-10.5,1.9-18.1,5.8-22.7c3.9-4.6,8.9-7,15.1-7 c4.3,0,7.9,1.2,10.8,3.7C95.7,55.3,97.6,58.9,98.3,63.5z M73.5,87.4c0,3.6,0.8,6.3,2.5,8.3c1.6,1.9,3.5,2.9,5.6,2.9 c2,0,3.7-0.8,5.1-2.4c1.4-1.6,2-4.2,2-7.8c0-3.7-0.7-6.5-2.2-8.2c-1.5-1.7-3.3-2.6-5.5-2.6c-2.1,0-3.9,0.8-5.4,2.5 C74.2,81.8,73.5,84.2,73.5,87.4z" class="st3"/></g></g></svg>