<svg xmlns="http://www.w3.org/2000/svg" xmlns:xlink="http://www.w3.org/1999/xlink" id="transaction" x="0" y="0" enable-background="new 0 0 255.1 255.1" version="1.1" viewBox="0 0 255.1 255.1" xml:space="preserve"><style type="text/css">.st0{fill:#b7952c}.st1{fill:#fbe244}.st2{fill:#ceb135}.st3{fill:#323e50}.st4{fill:#95989b}.st5{fill:#454f5b}.st6{fill:none;stroke:#323e50;stroke-width:19.5493;stroke-miterlimit:10}</style><g><polygon points="127.5 112.6 140.4 120.1 127.6 127.5 114.7 120.1" class="st0"/><polygon points="114.7 120.1 114.7 134.9 127.6 142.3 127.6 127.5" class="st1"/><polygon points="127.6 142.3 127.6 127.5 140.4 120.1 140.4 134.9" class="st2"/><polygon points="143.3 121.7 156.2 129.2 143.4 136.6 130.5 129.2" class="st0"/><polygon points="130.5 129.2 130.5 144 143.4 151.4 143.4 136.6" class="st1"/><polygon points="143.4 151.4 143.4 136.6 156.2 129.2 156.2 144" class="st2"/><polygon points="159.1 130.8 172 138.3 159.2 145.7 146.3 138.3" class="st0"/><polygon points="146.3 138.3 146.3 153.1 159.2 160.6 159.2 145.7" class="st1"/><polygon points="159.2 160.6 159.2 145.7 172 138.3 172 153.1" class="st2"/><polygon points="174.9 139.9 187.8 147.4 175 154.8 162.1 147.4" class="st3"/><polygon points="162.1 147.4 162.1 162.2 175 169.7 175 154.8" class="st4"/><polygon points="175 169.7 175 154.8 187.8 147.4 187.8 162.3" class="st5"/><polygon points="127.5 94.4 140.4 101.9 127.6 109.3 114.7 101.9" class="st0"/><polygon points="114.7 101.9 114.7 116.7 127.6 124.2 127.6 109.3" class="st1"/><polygon points="127.6 124.2 127.6 109.3 140.4 101.9 140.4 116.7" class="st2"/><polygon points="143.3 103.5 156.2 111 143.4 118.4 130.5 111" class="st0"/><polygon points="130.5 111 130.5 125.9 143.4 133.3 143.4 118.4" class="st1"/><polygon points="143.4 133.3 143.4 118.4 156.2 111 156.2 125.9" class="st2"/><polygon points="159.1 112.7 172 120.1 159.2 127.5 146.3 120.1" class="st0"/><polygon points="146.3 120.1 146.3 135 159.2 142.4 159.2 127.5" class="st1"/><polygon points="159.2 142.4 159.2 127.5 172 120.1 172 135" class="st2"/><polygon points="174.9 121.8 187.8 129.2 175 136.7 162.1 129.2" class="st3"/><polygon points="162.1 129.2 162.1 144.1 175 151.5 175 136.7" class="st4"/><polygon points="175 151.5 175 136.7 187.8 129.2 187.8 144.1" class="st5"/><polygon points="127.5 76.3 140.4 83.7 127.6 91.2 114.7 83.7" class="st0"/><polygon points="114.7 83.7 114.7 98.6 127.6 106 127.6 91.2" class="st1"/><polygon points="127.6 106 127.6 91.2 140.4 83.7 140.4 98.6" class="st2"/><polygon points="143.3 85.4 156.2 92.9 143.4 100.3 130.5 92.9" class="st0"/><polygon points="130.5 92.9 130.5 107.7 143.4 115.1 143.4 100.3" class="st1"/><polygon points="143.4 115.1 143.4 100.3 156.2 92.9 156.2 107.7" class="st2"/><polygon points="159.1 94.5 172 102 159.2 109.4 146.3 102" class="st0"/><polygon points="146.3 102 146.3 116.8 159.2 124.2 159.2 109.4" class="st1"/><polygon points="159.2 124.2 159.2 109.4 172 102 172 116.8" class="st2"/><polygon points="174.9 103.6 187.8 111.1 175 118.5 162.1 111.1" class="st3"/><polygon points="162.1 111.1 162.1 125.9 175 133.3 175 118.5" class="st4"/><polygon points="175 133.3 175 118.5 187.8 111.1 187.8 125.9" class="st5"/><polygon points="127.5 58.1 140.4 65.6 127.6 73 114.7 65.6" class="st3"/><polygon points="114.7 65.6 114.7 80.4 127.6 87.8 127.6 73" class="st4"/><polygon points="127.6 87.8 127.6 73 140.4 65.6 140.4 80.4" class="st5"/><polygon points="143.3 67.2 156.2 74.7 143.4 82.1 130.5 74.7" class="st3"/><polygon points="130.5 74.7 130.5 89.5 143.4 97 143.4 82.1" class="st4"/><polygon points="143.4 97 143.4 82.1 156.2 74.7 156.2 89.5" class="st5"/><polygon points="159.1 76.3 172 83.8 159.2 91.2 146.3 83.8" class="st3"/><polygon points="146.3 83.8 146.3 98.7 159.2 106.1 159.2 91.2" class="st4"/><polygon points="159.2 106.1 159.2 91.2 172 83.8 172 98.7" class="st5"/><polygon points="174.9 85.5 187.8 92.9 175 100.3 162.1 92.9" class="st3"/><polygon points="162.1 92.9 162.1 107.8 175 115.2 175 100.3" class="st4"/><polygon points="175 115.2 175 100.3 187.8 92.9 187.8 107.8" class="st5"/><polygon points="111.8 121.7 124.6 129.2 111.8 136.6 98.9 129.2" class="st0"/><polygon points="98.9 129.2 98.9 144 111.8 151.4 111.8 136.6" class="st1"/><polygon points="111.8 151.4 111.8 136.6 124.6 129.2 124.6 144" class="st2"/><polygon points="127.5 130.8 140.4 138.3 127.6 145.7 114.7 138.3" class="st0"/><polygon points="114.7 138.3 114.7 153.1 127.6 160.6 127.6 145.7" class="st1"/><polygon points="127.6 160.6 127.6 145.7 140.4 138.3 140.4 153.1" class="st2"/><polygon points="143.3 139.9 156.2 147.4 143.4 154.8 130.5 147.4" class="st0"/><polygon points="130.5 147.4 130.5 162.2 143.4 169.7 143.4 154.8" class="st1"/><polygon points="143.4 169.7 143.4 154.8 156.2 147.4 156.2 162.3" class="st2"/><polygon points="159.1 149 172 156.5 159.2 163.9 146.3 156.5" class="st3"/><polygon points="146.3 156.5 146.3 171.4 159.2 178.8 159.2 163.9" class="st4"/><polygon points="159.2 178.8 159.2 163.9 172 156.5 172 171.4" class="st5"/><polygon points="111.8 103.5 124.6 111 111.8 118.4 98.9 111" class="st0"/><polygon points="98.9 111 98.9 125.9 111.8 133.3 111.8 118.4" class="st1"/><polygon points="111.8 133.3 111.8 118.4 124.6 111 124.6 125.9" class="st2"/><polygon points="127.5 112.7 140.4 120.1 127.6 127.5 114.7 120.1" class="st3"/><polygon points="114.7 120.1 114.7 135 127.6 142.4 127.6 127.5" class="st4"/><polygon points="127.6 142.4 127.6 127.5 140.4 120.1 140.4 135" class="st5"/><polygon points="143.3 121.8 156.2 129.2 143.4 136.7 130.5 129.2" class="st3"/><polygon points="130.5 129.2 130.5 144.1 143.4 151.5 143.4 136.7" class="st4"/><polygon points="143.4 151.5 143.4 136.7 156.2 129.2 156.2 144.1" class="st5"/><polygon points="159.1 130.9 172 138.4 159.2 145.8 146.3 138.4" class="st3"/><polygon points="146.3 138.4 146.3 153.2 159.2 160.6 159.2 145.8" class="st4"/><polygon points="159.2 160.6 159.2 145.8 172 138.4 172 153.2" class="st5"/><polygon points="111.8 85.4 124.6 92.9 111.8 100.3 98.9 92.9" class="st0"/><polygon points="98.9 92.9 98.9 107.7 111.8 115.1 111.8 100.3" class="st1"/><polygon points="111.8 115.1 111.8 100.3 124.6 92.9 124.6 107.7" class="st2"/><polygon points="127.5 94.5 140.4 102 127.6 109.4 114.7 102" class="st3"/><polygon points="114.7 102 114.7 116.8 127.6 124.2 127.6 109.4" class="st4"/><polygon points="127.6 124.2 127.6 109.4 140.4 102 140.4 116.8" class="st5"/><polygon points="143.3 103.6 156.2 111.1 143.4 118.5 130.5 111.1" class="st3"/><polygon points="130.5 111.1 130.5 125.9 143.4 133.3 143.4 118.5" class="st4"/><polygon points="143.4 133.3 143.4 118.5 156.2 111.1 156.2 125.9" class="st5"/><polygon points="159.1 112.7 172 120.2 159.2 127.6 146.3 120.2" class="st3"/><polygon points="146.3 120.2 146.3 135 159.2 142.5 159.2 127.6" class="st4"/><polygon points="159.2 142.5 159.2 127.6 172 120.2 172 135" class="st5"/><polygon points="111.8 67.2 124.6 74.7 111.8 82.1 98.9 74.7" class="st3"/><polygon points="98.9 74.7 98.9 89.5 111.8 97 111.8 82.1" class="st4"/><polygon points="111.8 97 111.8 82.1 124.6 74.7 124.6 89.5" class="st5"/><polygon points="127.5 76.3 140.4 83.8 127.6 91.2 114.7 83.8" class="st3"/><polygon points="114.7 83.8 114.7 98.7 127.6 106.1 127.6 91.2" class="st4"/><polygon points="127.6 106.1 127.6 91.2 140.4 83.8 140.4 98.7" class="st5"/><polygon points="143.3 85.5 156.2 92.9 143.4 100.3 130.5 92.9" class="st3"/><polygon points="130.5 92.9 130.5 107.8 143.4 115.2 143.4 100.3" class="st4"/><polygon points="143.4 115.2 143.4 100.3 156.2 92.9 156.2 107.8" class="st5"/><polygon points="159.1 94.6 172 102 159.2 109.5 146.3 102" class="st3"/><polygon points="146.3 102 146.3 116.9 159.2 124.3 159.2 109.5" class="st4"/><polygon points="159.2 124.3 159.2 109.5 172 102 172 116.9" class="st5"/><polygon points="96 130.8 108.9 138.3 96 145.7 83.1 138.3" class="st0"/><polygon points="83.1 138.3 83.2 153.1 96 160.6 96 145.7" class="st1"/><polygon points="96 160.6 96 145.7 108.9 138.3 108.9 153.1" class="st2"/><polygon points="111.8 139.9 124.6 147.4 111.8 154.8 98.9 147.4" class="st0"/><polygon points="98.9 147.4 98.9 162.2 111.8 169.7 111.8 154.8" class="st1"/><polygon points="111.8 169.7 111.8 154.8 124.6 147.4 124.6 162.3" class="st2"/><polygon points="127.5 149 140.4 156.5 127.6 163.9 114.7 156.5" class="st3"/><polygon points="114.7 156.5 114.7 171.4 127.6 178.8 127.6 163.9" class="st4"/><polygon points="127.6 178.8 127.6 163.9 140.4 156.5 140.4 171.4" class="st5"/><polygon points="143.3 158.2 156.2 165.6 143.4 173 130.5 165.6" class="st3"/><polygon points="130.5 165.6 130.5 180.5 143.4 187.9 143.4 173" class="st4"/><polygon points="143.4 187.9 143.4 173 156.2 165.6 156.2 180.5" class="st5"/><polygon points="96 112.7 108.9 120.1 96 127.5 83.1 120.1" class="st0"/><polygon points="83.1 120.1 83.2 135 96 142.4 96 127.5" class="st1"/><polygon points="96 142.4 96 127.5 108.9 120.1 108.9 135" class="st2"/><polygon points="111.8 121.8 124.6 129.2 111.8 136.7 98.9 129.2" class="st3"/><polygon points="98.9 129.2 98.9 144.1 111.8 151.5 111.8 136.7" class="st4"/><polygon points="111.8 151.5 111.8 136.7 124.6 129.2 124.6 144.1" class="st5"/><polygon points="127.5 130.9 140.4 138.4 127.6 145.8 114.7 138.4" class="st3"/><polygon points="114.7 138.4 114.7 153.2 127.6 160.6 127.6 145.8" class="st4"/><polygon points="127.6 160.6 127.6 145.8 140.4 138.4 140.4 153.2" class="st5"/><polygon points="143.3 140 156.2 147.5 143.4 154.9 130.5 147.5" class="st3"/><polygon points="130.5 147.5 130.5 162.3 143.4 169.7 143.4 154.9" class="st4"/><polygon points="143.4 169.7 143.4 154.9 156.2 147.5 156.2 162.3" class="st5"/><polygon points="96 94.5 108.9 102 96 109.4 83.1 102" class="st0"/><polygon points="83.1 102 83.2 116.8 96 124.2 96 109.4" class="st1"/><polygon points="96 124.2 96 109.4 108.9 102 108.9 116.8" class="st2"/><polygon points="111.8 103.6 124.6 111.1 111.8 118.5 98.9 111.1" class="st3"/><polygon points="98.9 111.1 98.9 125.9 111.8 133.3 111.8 118.5" class="st4"/><polygon points="111.8 133.3 111.8 118.5 124.6 111.1 124.6 125.9" class="st5"/><polygon points="96 76.3 108.9 83.8 96 91.2 83.1 83.8" class="st3"/><polygon points="83.1 83.8 83.2 98.7 96 106.1 96 91.2" class="st4"/><polygon points="96 106.1 96 91.2 108.9 83.8 108.9 98.7" class="st5"/><polygon points="111.8 85.5 124.6 92.9 111.8 100.3 98.9 92.9" class="st3"/><polygon points="98.9 92.9 98.9 107.8 111.8 115.2 111.8 100.3" class="st4"/><polygon points="111.8 115.2 111.8 100.3 124.6 92.9 124.6 107.8" class="st5"/><polygon points="80.2 139.9 93.1 147.4 80.2 154.8 67.3 147.4" class="st3"/><polygon points="67.3 147.4 67.4 162.2 80.2 169.7 80.2 154.8" class="st4"/><polygon points="80.2 169.7 80.2 154.8 93.1 147.4 93.1 162.3" class="st5"/><polygon points="96 149 108.9 156.5 96 163.9 83.1 156.5" class="st3"/><polygon points="83.1 156.5 83.2 171.4 96 178.8 96 163.9" class="st4"/><polygon points="96 178.8 96 163.9 108.9 156.5 108.9 171.4" class="st5"/><polygon points="111.8 158.2 124.6 165.6 111.8 173 98.9 165.6" class="st3"/><polygon points="98.9 165.6 98.9 180.5 111.8 187.9 111.8 173" class="st4"/><polygon points="111.8 187.9 111.8 173 124.6 165.6 124.6 180.5" class="st5"/><polygon points="127.5 167.3 140.4 174.8 127.6 182.2 114.7 174.8" class="st3"/><polygon points="114.7 174.8 114.7 189.6 127.6 197 127.6 182.2" class="st4"/><polygon points="127.6 197 127.6 182.2 140.4 174.8 140.4 189.6" class="st5"/><polygon points="80.2 121.8 93.1 129.2 80.2 136.7 67.3 129.2" class="st3"/><polygon points="67.3 129.2 67.4 144.1 80.2 151.5 80.2 136.7" class="st4"/><polygon points="80.2 151.5 80.2 136.7 93.1 129.2 93.1 144.1" class="st5"/><polygon points="96 130.9 108.9 138.4 96 145.8 83.1 138.4" class="st3"/><polygon points="83.1 138.4 83.2 153.2 96 160.6 96 145.8" class="st4"/><polygon points="96 160.6 96 145.8 108.9 138.4 108.9 153.2" class="st5"/><polygon points="111.8 140 124.6 147.5 111.8 154.9 98.9 147.5" class="st3"/><polygon points="98.9 147.5 98.9 162.3 111.8 169.7 111.8 154.9" class="st4"/><polygon points="111.8 169.7 111.8 154.9 124.6 147.5 124.6 162.3" class="st5"/><polygon points="80.2 103.6 93.1 111.1 80.2 118.5 67.3 111.1" class="st3"/><polygon points="67.3 111.1 67.4 125.9 80.2 133.3 80.2 118.5" class="st4"/><polygon points="80.2 133.3 80.2 118.5 93.1 111.1 93.1 125.9" class="st5"/><polygon points="96 112.7 108.9 120.2 96 127.6 83.1 120.2" class="st3"/><polygon points="83.1 120.2 83.2 135 96 142.5 96 127.6" class="st4"/><polygon points="96 142.5 96 127.6 108.9 120.2 108.9 135" class="st5"/><polygon points="80.2 85.5 93.1 92.9 80.2 100.3 67.3 92.9" class="st3"/><polygon points="67.3 92.9 67.4 107.8 80.2 115.2 80.2 100.3" class="st4"/><polygon points="80.2 115.2 80.2 100.3 93.1 92.9 93.1 107.8" class="st5"/><polygon points="96 94.6 108.9 102 96 109.5 83.1 102" class="st3"/><polygon points="83.1 102 83.2 116.9 96 124.3 96 109.5" class="st4"/><polygon points="96 124.3 96 109.5 108.9 102 108.9 116.9" class="st5"/></g><circle cx="127.6" cy="127.6" r="106.3" class="st6"/></svg>