<svg xmlns="http://www.w3.org/2000/svg" xmlns:xlink="http://www.w3.org/1999/xlink" id="Layer_1" x="0" y="0" enable-background="new 0 0 283.5 283.5" version="1.1" viewBox="0 0 283.5 283.5" xml:space="preserve"><style type="text/css">.st0{fill:#323e50}</style><path d="M142,13.7c-39.9,0-65.8,16.4-86.1,45.5c-3.7,5.3-2.5,12.5,2.6,16.4L80.1,92c5.2,3.9,12.6,3,16.6-2.1	c12.5-15.7,21.8-24.7,41.4-24.7c15.4,0,34.4,9.9,34.4,24.8c0,11.3-9.3,17.1-24.5,25.6c-17.7,9.9-41.1,22.3-41.1,53.2v4.9	c0,6.6,5.4,12,12,12h36.2c6.6,0,12-5.4,12-12v-2.9c0-21.4,62.6-22.3,62.6-80.3C229.7,46.9,184.4,13.7,142,13.7z M137,200.5	c-19.1,0-34.6,15.5-34.6,34.6s15.5,34.6,34.6,34.6s34.6-15.5,34.6-34.6S156.1,200.5,137,200.5z" class="st0"/></svg>